# xmcd CD database file
#
# Track frame offsets:
#	150
#	18472
#	36152
#	52382
#	68458
#	91529
#	107989
#	123937
#	140997
#	154921
#	179054
#
# Disc length: 2580 seconds
#
# Revision: 0
# Processed by: cddbd v1.5.2PL0 Copyright (c) Steve Scherf et al.
# Submitted via: CDex 1.51
#
DISCID=9d0a120b
DTITLE=Matt Hillyer - If These Old Bones Could Talk
DYEAR=2014
DGENRE=Country
TTITLE0=A Little Less Whiskey
TTITLE1=Home Is Where The Heartbreak Is
TTITLE2=If These Old Bones Could Talk
TTITLE3=The Price Of Love
TTITLE4=That Crying Time Of Night
TTITLE5=It Was Me
TTITLE6=I Still Have A Little Falling Left To Go
TTITLE7=My Enemy My Heart
TTITLE8=The Run Up Tree
TTITLE9=Dancing With The Moon
TTITLE10=Matt Hillyer - Try Not To Take It So Hard
EXTD=YEAR: 2014
EXTT0=
EXTT1=
EXTT2=
EXTT3=
EXTT4=
EXTT5=
EXTT6=
EXTT7=
EXTT8=
EXTT9=
EXTT10=
PLAYORDER=
